<svg version="1.1" id="Layer_1" xmlns="http://www.w3.org/2000/svg" xmlns:xlink="http://www.w3.org/1999/xlink" x="0px" y="0px" viewBox="0 0 1587.7 910.1" enable-background="new 0 0 1587.7 910.1" xml:space="preserve"><g id="IPHONE5C_x5F_BACK_6_"><path fill="#FEEF6E" d="M8221,7222.5v35.1v1299.9v35c0,27.8,10.2,55.5,27.9,75.9c15.5,17.9,44.5,39.1,94.8,39.1h7.5h499.7h7.5c50.3,0,79.3-21.3,94.8-39.1c17.7-20.4,27.9-48.1,27.9-75.9v-35V7257.6v-35.1c0-27.8-10.2-55.5-27.9-75.9c-15.5-17.9-44.5-39.1-94.8-39.1h-7.5h-499.7h-7.5c-50.3,0-79.3,21.3-94.8,39.1C8231.1,7167.1,8221,7194.7,8221,7222.5z"/><path fill="#EDDA6B" d="M8987.9,7449.8v102.4c0,1.1-1.6,2.8-2.8,2.8h-4.2v-108h3.9C8986,7447,8987.9,7448.7,8987.9,7449.8z"/><path fill="#EDDA6B" d="M8349,7103.7v4.3h122v-4.3c0-1.7-2-3.7-3.6-3.7h-114.6C8351,7100,8349,7102,8349,7103.7z"/><path fill="#EDDA6B" d="M8987.9,7597.8v102.4c0,1.1-1.6,2.8-2.8,2.8h-4.2v-108h3.9C8986,7595,8987.9,7596.7,8987.9,7597.8z"/><path fill="#EDDA6B" d="M8984.8,7401h-3.8v-70h3.8c1.2,0,2.1,0.9,2.1,2v66C8986.9,7400.1,8986,7401,8984.8,7401z"/><path opacity="0.5" fill-rule="evenodd" clip-rule="evenodd" fill="#FFFFFF" d="M8370.3,7208.2c0,23.4-19,42.4-42.4,42.4s-42.4-19-42.4-42.4c0-23.4,19-42.4,42.4-42.4S8370.3,7184.8,8370.3,7208.2z"/><linearGradient id="SVGID_1_" gradientUnits="userSpaceOnUse" x1="8327.9541" y1="7169.4204" x2="8327.9541" y2="7245.0332"><stop  offset="0" style="stop-color:#010101"/><stop  offset="0.9865" style="stop-color:#231F20"/></linearGradient><path fill-rule="evenodd" clip-rule="evenodd" fill="url(#SVGID_1_)" d="M8367.4,7208.2c0,21.8-17.6,39.4-39.4,39.4c-21.8,0-39.4-17.6-39.4-39.4c0-21.8,17.6-39.4,39.4-39.4C8349.7,7168.8,8367.4,7186.4,8367.4,7208.2z"/><path fill-rule="evenodd" clip-rule="evenodd" fill="#3B3E42" d="M8357.5,7208.2c0,16.3-13.2,29.5-29.5,29.5c-16.3,0-29.5-13.2-29.5-29.5c0-16.3,13.2-29.5,29.5-29.5C8344.2,7178.7,8357.5,7191.9,8357.5,7208.2z"/><path fill-rule="evenodd" clip-rule="evenodd" fill="#231F20" d="M8347.1,7208.2c0,10.6-8.6,19.1-19.1,19.1c-10.6,0-19.1-8.6-19.1-19.1c0-10.6,8.6-19.1,19.1-19.1C8338.5,7189,8347.1,7197.6,8347.1,7208.2z"/><linearGradient id="SVGID_2_" gradientUnits="userSpaceOnUse" x1="-15832.8535" y1="7208.1802" x2="-15803.5742" y2="7208.1802" gradientTransform="matrix(-1 0 0 1 -7490.2593 0)"><stop  offset="0" style="stop-color:#2075BC"/><stop  offset="1" style="stop-color:#804099"/></linearGradient><path fill-rule="evenodd" clip-rule="evenodd" fill="url(#SVGID_2_)" d="M8342.6,7208.2c0,8.1-6.6,14.6-14.6,14.6s-14.6-6.6-14.6-14.6s6.6-14.6,14.6-14.6S8342.6,7200.1,8342.6,7208.2z"/><path fill-rule="evenodd" clip-rule="evenodd" fill="#FFFFFF" d="M8332.2,7218.6c0,1.9-1.9,3.4-4.3,3.4s-4.3-1.5-4.3-3.4s1.9-3.4,4.3-3.4S8332.2,7216.7,8332.2,7218.6z"/><circle opacity="0.5" fill-rule="evenodd" clip-rule="evenodd" fill="#FFFFFF" cx="8399.4" cy="7208.2" r="6.3"/><linearGradient id="SVGID_3_" gradientUnits="userSpaceOnUse" x1="8399.4238" y1="7203.1245" x2="8399.4238" y2="7213.4243"><stop  offset="0" style="stop-color:#010101"/><stop  offset="0.9865" style="stop-color:#231F20"/></linearGradient><circle fill-rule="evenodd" clip-rule="evenodd" fill="url(#SVGID_3_)" cx="8399.4" cy="7208.2" r="5.1"/><circle opacity="0.5" fill-rule="evenodd" clip-rule="evenodd" fill="#FFFFFF" cx="8451" cy="7208.2" r="21.7"/><circle fill-rule="evenodd" clip-rule="evenodd" fill="#FEEF6E" cx="8451" cy="7208.2" r="20.8"/><radialGradient id="SVGID_4_" cx="8451.0479" cy="7208.1802" r="19.8904" gradientUnits="userSpaceOnUse"><stop  offset="0" style="stop-color:#D2D3D4"/><stop  offset="0.103" style="stop-color:#F2F2F2"/><stop  offset="0.2271" style="stop-color:#D2D3D4"/><stop  offset="0.38" style="stop-color:#F2F2F2"/><stop  offset="0.5097" style="stop-color:#D2D3D4"/><stop  offset="0.6371" style="stop-color:#E7E7E7"/><stop  offset="0.7171" style="stop-color:#D2D3D4"/><stop  offset="0.8296" style="stop-color:#BDBEC0"/><stop  offset="0.9267" style="stop-color:#6E6F72"/></radialGradient><circle fill-rule="evenodd" clip-rule="evenodd" fill="url(#SVGID_4_)" cx="8451" cy="7208.2" r="19.9"/><path opacity="0.5" fill="#FFFFFF" d="M8643.3,7484.9c-7.2,0-13.8,1.1-19.7,3.2l-3.7,1.4l-5,2c-3.3,1.2-6.2,1.9-8.9,1.9c-2.1,0-4.8-0.7-8.2-2.2l-3.8-1.6l-3.6-1.5c-5.3-2.2-11-3.3-17-3.3c-16.3,0-29.3,5.5-39.2,16.5c-9.9,11-14.8,25.4-14.8,43.4c0,25.3,7.9,48.6,23.7,70.1c11,15,21,22.4,30.1,22.4c3.9,0,7.7-0.8,11.5-2.3l4.8-2l3.8-1.4c5.4-1.9,10.3-2.8,14.8-2.8c4.8,0,10.3,1.2,16.5,3.6l3,1.2c6.3,2.4,11.3,3.6,15,3.6c7.8,0,16.4-5.3,25.8-16c9.4-10.6,16.6-23.2,21.6-37.5c-18.5-9.5-27.7-23.2-27.7-41.1c0-14.9,7.5-27.6,22.4-38.2C8674,7491.4,8660.3,7484.9,8643.3,7484.9L8643.3,7484.9z M8640.8,7437.8c-10.1,1.4-18.9,6.4-26.6,14.8s-11.5,17.4-11.5,27c0,1.1,0.2,2.9,0.5,5.5c10.9,0,20.5-4.3,28.7-12.8c8.2-8.5,12.3-18.4,12.3-29.7c0-1.2-0.1-3-0.3-5.3C8642.6,7437.5,8641.5,7437.6,8640.8,7437.8L8640.8,7437.8z"/><path fill="#231F20" d="M8643.3,7481.6c-7.2,0-13.8,1.1-19.7,3.2l-3.7,1.4l-5,2c-3.3,1.2-6.2,1.9-8.9,1.9c-2.1,0-4.8-0.7-8.2-2.2l-3.8-1.6l-3.6-1.5c-5.3-2.2-11-3.3-17-3.3c-16.3,0-29.3,5.5-39.2,16.5c-9.9,11-14.8,25.4-14.8,43.4c0,25.3,7.9,48.6,23.7,70.1c11,15,21,22.4,30.1,22.4c3.9,0,7.7-0.8,11.5-2.3l4.8-2l3.8-1.4c5.4-1.9,10.3-2.8,14.8-2.8c4.8,0,10.3,1.2,16.5,3.6l3,1.2c6.3,2.4,11.3,3.6,15,3.6c7.8,0,16.4-5.3,25.8-16c9.4-10.6,16.6-23.2,21.6-37.5c-18.5-9.5-27.7-23.2-27.7-41c0-14.9,7.5-27.6,22.4-38.2C8674,7488.1,8660.3,7481.6,8643.3,7481.6L8643.3,7481.6z M8640.8,7434.4c-10.1,1.4-18.9,6.4-26.6,14.8s-11.5,17.4-11.5,27c0,1.1,0.2,2.9,0.5,5.5c10.9,0,20.5-4.3,28.7-12.8c8.2-8.5,12.3-18.4,12.3-29.7c0-1.2-0.1-3-0.3-5.3C8642.6,7434.1,8641.5,7434.3,8640.8,7434.4L8640.8,7434.4z"/><path opacity="0.5" fill="#FFFFFF" d="M8528.1,8285.3c0.1,1.8-1.2,3.2-3.3,3.2c-1.8,0-3.1-1.4-3.1-3.2c0-1.8,1.3-3.2,3.2-3.2C8526.9,8282.1,8528.1,8283.5,8528.1,8285.3z M8522.4,8321.6v-28.4h5.2v28.4H8522.4z"/><path opacity="0.5" fill="#FFFFFF" d="M8536.3,8282.6c2.5-0.4,5.7-0.8,9.8-0.8c5,0,8.7,1.2,11.1,3.3c2.2,1.9,3.5,4.7,3.5,8.3c0,3.6-1.1,6.4-3,8.4c-2.7,2.9-7.1,4.3-12.1,4.3c-1.5,0-2.9-0.1-4.1-0.4v15.8h-5.1V8282.6z M8541.4,8301.7c1.1,0.3,2.5,0.4,4.2,0.4c6.2,0,9.9-3,9.9-8.4c0-5.2-3.7-7.7-9.3-7.7c-2.2,0-3.9,0.2-4.8,0.4V8301.7z"/><path opacity="0.5" fill="#FFFFFF" d="M8567,8280h5.2v17.7h0.1c0.8-1.5,2.1-2.8,3.7-3.6c1.5-0.9,3.3-1.5,5.3-1.5c3.8,0,9.9,2.3,9.9,12.1v16.9h-5.2v-16.3c0-4.6-1.7-8.4-6.6-8.4c-3.3,0-6,2.3-6.9,5.2c-0.3,0.7-0.4,1.5-0.4,2.5v17.1h-5.2V8280z"/><path opacity="0.5" fill="#FFFFFF" d="M8625.2,8307.2c0,10.5-7.3,15.1-14.1,15.1c-7.7,0-13.6-5.6-13.6-14.6c0-9.5,6.2-15.1,14.1-15.1C8619.7,8292.6,8625.2,8298.6,8625.2,8307.2z M8602.7,8307.5c0,6.2,3.6,10.9,8.6,10.9c4.9,0,8.6-4.6,8.6-11c0-4.8-2.4-10.9-8.5-10.9C8605.3,8296.5,8602.7,8302.1,8602.7,8307.5z"/><path opacity="0.5" fill="#FFFFFF" d="M8631.7,8301c0-2.9-0.1-5.3-0.2-7.7h4.6l0.3,4.7h0.1c1.4-2.7,4.7-5.3,9.4-5.3c3.9,0,10,2.3,10,12.1v16.9h-5.2v-16.4c0-4.6-1.7-8.4-6.6-8.4c-3.4,0-6,2.4-6.9,5.3c-0.2,0.6-0.4,1.5-0.4,2.4v17.1h-5.2V8301z"/><path opacity="0.5" fill="#FFFFFF" d="M8667.1,8308.4c0.1,7,4.6,9.8,9.7,9.8c3.7,0,5.9-0.6,7.9-1.5l0.9,3.7c-1.8,0.8-4.9,1.8-9.4,1.8c-8.7,0-13.9-5.7-13.9-14.3s5-15.3,13.3-15.3c9.3,0,11.7,8.1,11.7,13.4c0,1.1-0.1,1.9-0.2,2.4H8667.1z M8682.2,8304.7c0.1-3.3-1.3-8.4-7.2-8.4c-5.2,0-7.5,4.8-7.9,8.4H8682.2z"/><path fill="#231F20" d="M8528.1,8283.3c0.1,1.8-1.2,3.2-3.3,3.2c-1.8,0-3.1-1.4-3.1-3.2c0-1.8,1.3-3.2,3.2-3.2C8526.9,8280,8528.1,8281.4,8528.1,8283.3z M8522.4,8319.6v-28.4h5.2v28.4H8522.4z"/><path fill="#231F20" d="M8536.3,8280.6c2.5-0.4,5.7-0.8,9.8-0.8c5,0,8.7,1.2,11.1,3.3c2.2,1.9,3.5,4.7,3.5,8.3c0,3.6-1.1,6.4-3,8.4c-2.7,2.9-7.1,4.3-12.1,4.3c-1.5,0-2.9-0.1-4.1-0.4v15.8h-5.1V8280.6z M8541.4,8299.6c1.1,0.3,2.5,0.4,4.2,0.4c6.2,0,9.9-3,9.9-8.4c0-5.2-3.7-7.7-9.3-7.7c-2.2,0-3.9,0.2-4.8,0.4V8299.6z"/><path fill="#231F20" d="M8567,8278h5.2v17.7h0.1c0.8-1.5,2.1-2.8,3.7-3.6c1.5-0.9,3.3-1.5,5.3-1.5c3.8,0,9.9,2.3,9.9,12.1v16.9h-5.2v-16.3c0-4.6-1.7-8.4-6.6-8.4c-3.3,0-6,2.3-6.9,5.2c-0.3,0.7-0.4,1.5-0.4,2.5v17.1h-5.2V8278z"/><path fill="#231F20" d="M8625.2,8305.2c0,10.5-7.3,15.1-14.1,15.1c-7.7,0-13.6-5.6-13.6-14.6c0-9.5,6.2-15.1,14.1-15.1C8619.7,8290.6,8625.2,8296.5,8625.2,8305.2z M8602.7,8305.5c0,6.2,3.6,10.9,8.6,10.9c4.9,0,8.6-4.6,8.6-11c0-4.8-2.4-10.9-8.5-10.9C8605.3,8294.4,8602.7,8300.1,8602.7,8305.5z"/><path fill="#231F20" d="M8631.7,8298.9c0-2.9-0.1-5.3-0.2-7.7h4.6l0.3,4.7h0.1c1.4-2.7,4.7-5.3,9.4-5.3c3.9,0,10,2.3,10,12.1v16.9h-5.2v-16.4c0-4.6-1.7-8.4-6.6-8.4c-3.4,0-6,2.4-6.9,5.3c-0.2,0.6-0.4,1.5-0.4,2.4v17.1h-5.2V8298.9z"/><path fill="#231F20" d="M8667.1,8306.3c0.1,7,4.6,9.8,9.7,9.8c3.7,0,5.9-0.6,7.9-1.5l0.9,3.7c-1.8,0.8-4.9,1.8-9.4,1.8c-8.7,0-13.9-5.7-13.9-14.3c0-8.6,5-15.3,13.3-15.3c9.3,0,11.7,8.1,11.7,13.4c0,1.1-0.1,1.9-0.2,2.4H8667.1z M8682.2,8302.7c0.1-3.3-1.3-8.4-7.2-8.4c-5.2,0-7.5,4.8-7.9,8.4H8682.2z"/><ellipse transform="matrix(-0.7071 -0.7071 0.7071 -0.7071 9321.415 18262.6113)" opacity="0.1" fill="#010101" cx="8443.1" cy="7200.7" rx="8.4" ry="4.3"/><ellipse transform="matrix(0.7071 0.7071 -0.7071 0.7071 7569.6387 -3872.5745)" opacity="0.1" fill="#010101" cx="8459.3" cy="7200.7" rx="4.3" ry="8.4"/><ellipse transform="matrix(-0.7071 -0.7071 0.7071 -0.7071 9310.3604 18288.9102)" opacity="0.1" fill="#010101" cx="8443.1" cy="7216.1" rx="4.3" ry="8.4"/><ellipse transform="matrix(-0.7071 -0.7071 0.7071 -0.7071 9338.165 18300.3457)" opacity="0.1" fill="#010101" cx="8459.3" cy="7216.1" rx="8.4" ry="4.3"/></g><g id="MACKBOOK_x5F_PRO_x5F_FRONT_1_"><g><g><g><path fill="#E5E6E7" d="M1394.3,4.4c27.3,0,49.4,22.1,49.4,49.4v791.7c0,5.6-1.1,10.8-3,15.7c-0.9,2.3-3.1,3.9-5.6,3.9H152.6c-2.5,0-4.7-1.6-5.6-3.9c-1.9-4.9-3-10.2-3-15.7V53.8c0-27.3,22.1-49.4,49.4-49.4H1394.3 M1394.3,0h-1201c-29.7,0-53.8,24.1-53.8,53.8v791.7c0,5.9,1.1,11.8,3.3,17.3c1.6,4.1,5.4,6.7,9.7,6.7h1282.6c4.3,0,8.1-2.6,9.7-6.7c2.2-5.6,3.3-11.4,3.3-17.3V53.8C1448.2,24.1,1424,0,1394.3,0L1394.3,0z"/><linearGradient id="SVGID_5_" gradientUnits="userSpaceOnUse" x1="793.8668" y1="858.0885" x2="793.8668" y2="5.6271"><stop  offset="0" style="stop-color:#808184"/><stop  offset="0.5" style="stop-color:#F1F1F2"/><stop  offset="0.9994" style="stop-color:#BBBDBF"/></linearGradient><path fill="url(#SVGID_5_)" d="M1394.3,4.4c27.3,0,49.4,22.1,49.4,49.4v791.7c0,5.6-1.1,10.8-3,15.7c-0.9,2.3-3.1,3.9-5.6,3.9H152.6c-2.5,0-4.7-1.6-5.6-3.9c-1.9-4.9-3-10.2-3-15.7V53.8c0-27.3,22.1-49.4,49.4-49.4H1394.3 M1394.3,2h-1201c-29.7,0-51.8,24.1-51.8,53.8v789.7c0,5.9,1.1,11.8,3.3,17.3c1.6,4.1,3.4,6.7,7.7,6.7h1280.6c4.3,0,8.1-2.6,9.7-6.7c2.2-5.6,3.3-11.4,3.3-17.3V57.8C1446.2,25.3,1424.3,2.4,1394.3,2L1394.3,2z"/><path fill-rule="evenodd" clip-rule="evenodd" fill="#0E1316" d="M1435.2,865.2c2.5,0,4.7-1.6,5.6-3.9c1.9-4.9,3-10.2,3-15.7V53.8c0-27.3-22.1-49.4-49.4-49.4h-1201c-27.3,0-49.4,22.1-49.4,49.4v791.7c0,5.6,1.1,10.9,3,15.7c0.9,2.3,3.1,3.9,5.6,3.9H1435.2z"/></g><path opacity="0.1" fill-rule="evenodd" clip-rule="evenodd" fill="#F1F1F2" d="M285.3,852.1h1017.2l1.2,17.5H284L285.3,852.1z"/><linearGradient id="SVGID_6_" gradientUnits="userSpaceOnUse" x1="793.8667" y1="852.5291" x2="793.8667" y2="861.6663"><stop  offset="0" style="stop-color:#010101"/><stop  offset="1" style="stop-color:#262B31"/></linearGradient><path fill-rule="evenodd" clip-rule="evenodd" fill="url(#SVGID_6_)" d="M286.5,852.1h1014.7l1.2,17.5H285.3L286.5,852.1z"/><g><path fill="#010101" d="M1402.6,852.6H185.1c-24.9,0-36.3-11.4-36.3-36.3V53.6c0-24.9,20.3-45.2,45.2-45.2h1199.8c24.9,0,45.2,20.3,45.2,45.2v762.7C1438.9,841.2,1427.5,852.6,1402.6,852.6z M194,12.9c-22.5,0-40.8,18.3-40.8,40.8v753.9c0,22.5,18.3,40.8,40.8,40.8h1199.8c22.5,0,40.8-18.3,40.8-40.8V53.6c0-22.5-18.3-40.8-40.8-40.8H194z"/><g><path fill-rule="evenodd" clip-rule="evenodd" fill="#272C31" d="M1393.8,10.7H194c-23.7,0-43,19.2-43,43v762.7c0,23.7,10.4,34.1,34.1,34.1h1217.4c23.7,0,34.1-10.4,34.1-34.1V53.6C1436.7,29.9,1417.5,10.7,1393.8,10.7z"/><path fill-rule="evenodd" clip-rule="evenodd" fill="#181B1E" d="M1391.1,12.5H196.6c-28.1,0-42.8,19.1-42.8,42.8v759.3c0,26.1,10.4,34,34,34h1212c23.6,0,34-6.3,34-34V55.3C1433.9,31.7,1418.9,12.5,1391.1,12.5z"/><path fill-rule="evenodd" clip-rule="evenodd" fill="#010101" d="M1393.8,15.1H194c-21.3,0-38.5,17.3-38.5,38.5v762.7c0,21.3,8.5,29.7,29.7,29.7h1217.4c21.3,0,29.7-8.5,29.7-29.7V53.6C1432.3,32.4,1415,15.1,1393.8,15.1z"/></g></g><path opacity="5.000000e-02" fill="#F1F1F2" d="M1398.6,55.4v756.5H189.1V55.4H1398.6 M1398.6,51H189.1c-2.4,0-4.4,2-4.4,4.4v756.5c0,2.4,2,4.4,4.4,4.4h1209.5c2.4,0,4.4-2,4.4-4.4V55.4C1403,53,1401,51,1398.6,51L1398.6,51z"/><g><path opacity="0.5" fill-rule="evenodd" clip-rule="evenodd" fill="#F1F1F2" d="M793.9,28.2c3.5,0,6.4,2.8,6.4,6.4c0,3.5-2.8,6.4-6.4,6.4c-3.5,0-6.4-2.8-6.4-6.4C787.5,31,790.4,28.2,793.9,28.2z"/><path fill-rule="evenodd" clip-rule="evenodd" fill="#231F20" d="M793.9,27.9c3.5,0,6.4,2.8,6.4,6.4c0,3.5-2.8,6.4-6.4,6.4c-3.5,0-6.4-2.8-6.4-6.4C787.5,30.7,790.4,27.9,793.9,27.9z"/><path opacity="0.5" fill-rule="evenodd" clip-rule="evenodd" fill="#010101" d="M793.9,28.8c3,0,5.4,2.4,5.4,5.4c0,3-2.4,5.4-5.4,5.4c-3,0-5.4-2.4-5.4-5.4C788.5,31.2,790.9,28.8,793.9,28.8z"/><path opacity="0.5" fill-rule="evenodd" clip-rule="evenodd" fill="#010101" d="M793.9,30.8c1.9,0,3.4,1.5,3.4,3.4c0,1.9-1.5,3.4-3.4,3.4c-1.9,0-3.4-1.5-3.4-3.4C790.5,32.3,792,30.8,793.9,30.8z"/><linearGradient id="SVGID_8_" gradientUnits="userSpaceOnUse" x1="791.326" y1="34.2104" x2="796.4074" y2="34.2104"><stop  offset="0" style="stop-color:#67308F"/><stop  offset="1" style="stop-color:#1D76BB"/></linearGradient><path fill-rule="evenodd" clip-rule="evenodd" fill="url(#SVGID_8_)" d="M793.9,31.7c1.4,0,2.5,1.1,2.5,2.5s-1.1,2.5-2.5,2.5s-2.5-1.1-2.5-2.5S792.5,31.7,793.9,31.7z"/><path fill-rule="evenodd" clip-rule="evenodd" fill="#FFFFFF" d="M793.9,32.2c0.6,0,1.1,0.3,1.1,0.8c0,0.4-0.5,0.8-1.1,0.8c-0.6,0-1.1-0.3-1.1-0.8C792.8,32.5,793.3,32.2,793.9,32.2z"/></g></g><g><g><linearGradient id="SVGID_9_" gradientUnits="userSpaceOnUse" x1="0" y1="876.3503" x2="1587.7334" y2="876.3503"><stop  offset="0" style="stop-color:#929497"/><stop  offset="1.000000e-02" style="stop-color:#FFFFFF"/><stop  offset="3.000000e-02" style="stop-color:#BBBDBF"/><stop  offset="5.000000e-02" style="stop-color:#F1F1F2"/><stop  offset="0.95" style="stop-color:#F1F1F2"/><stop  offset="0.97" style="stop-color:#BBBDBF"/><stop  offset="0.99" style="stop-color:#FFFFFF"/><stop  offset="1" style="stop-color:#929497"/></linearGradient><path fill-rule="evenodd" clip-rule="evenodd" fill="url(#SVGID_9_)" d="M1.6,861.6h1584.6c0.9,0,1.6,0.7,1.6,1.6v26.2c0,0.9-0.7,1.6-1.6,1.6H1.6c-0.9,0-1.6-0.7-1.6-1.6v-26.2C0,862.4,0.7,861.6,1.6,861.6z"/><linearGradient id="SVGID_10_" gradientUnits="userSpaceOnUse" x1="793.8667" y1="891.212" x2="793.8667" y2="909.9341"><stop  offset="0" style="stop-color:#808184"/><stop  offset="1" style="stop-color:#424143"/></linearGradient><path fill-rule="evenodd" clip-rule="evenodd" fill="url(#SVGID_10_)" d="M0.8,891.1h1586.1c0,0-15,9.7-34,14.5c-18.9,4.8-41.7,4.6-41.7,4.6H76.5c0,0-21.7,0.1-40.4-4.6C16.9,900.7,0.8,891.1,0.8,891.1z"/></g><path opacity="0.5" fill-rule="evenodd" clip-rule="evenodd" fill="#FFFFFF" d="M714.2,861.7h159.4h31.5c-0.1,10.4-7.1,18.8-15.8,18.8c-0.3,0-0.6,0-0.9,0H699.3c-0.3,0-0.6,0-0.9,0c-8.7,0-15.7-8.4-15.8-18.8H714.2z"/><linearGradient id="SVGID_11_" gradientUnits="userSpaceOnUse" x1="683.2152" y1="870.8924" x2="904.5182" y2="870.8924"><stop  offset="0" style="stop-color:#929497"/><stop  offset="0.2" style="stop-color:#D1D2D3"/><stop  offset="0.5" style="stop-color:#FFFFFF"/><stop  offset="0.8" style="stop-color:#D1D2D3"/><stop  offset="1" style="stop-color:#929497"/></linearGradient><path fill-rule="evenodd" clip-rule="evenodd" fill="url(#SVGID_11_)" d="M714.6,861.7h158.5h31.4c-0.1,10.1-7.1,18.3-15.7,18.3c-0.3,0-0.6,0-0.9,0H699.8c-0.3,0-0.6,0-0.9,0c-8.6,0-15.6-8.2-15.7-18.3H714.6z"/><g><g opacity="0.5"><g><path fill-rule="evenodd" clip-rule="evenodd" fill="#F1F1F2" d="M1041.8,901.4c-4.4,0-7.9-0.2-7.9,0.4c0,0.6,3.5,1.9,7.9,1.9c4.4,0,7.9-1.3,7.9-1.9C1049.7,901.2,1046.2,901.4,1041.8,901.4z M545.9,901.4c-4.4,0-7.9-0.2-7.9,0.4c0,0.6,3.5,1.9,7.9,1.9c4.4,0,7.9-1.3,7.9-1.9C553.9,901.2,550.3,901.4,545.9,901.4z"/></g></g><g><g><path fill-rule="evenodd" clip-rule="evenodd" fill="#424143" d="M1041.8,900.6c-4.4,0-7.9,0.5-7.9,1.2c0,0.6,3.5,1.2,7.9,1.2c4.4,0,7.9-0.5,7.9-1.2C1049.7,901.2,1046.2,900.6,1041.8,900.6z M545.9,900.6c-4.4,0-7.9,0.5-7.9,1.2c0,0.6,3.5,1.2,7.9,1.2c4.4,0,7.9-0.5,7.9-1.2C553.9,901.2,550.3,900.6,545.9,900.6z"/></g></g></g><linearGradient id="SVGID_12_" gradientUnits="userSpaceOnUse" x1="5.5626" y1="892.7122" x2="1582.1708" y2="892.7122"><stop  offset="0" style="stop-color:#FFFFFF;stop-opacity:0"/><stop  offset="0.5" style="stop-color:#FFFFFF"/><stop  offset="1" style="stop-color:#FFFFFF;stop-opacity:0"/></linearGradient><path opacity="0.5" fill-rule="evenodd" clip-rule="evenodd" fill="url(#SVGID_12_)" d="M5.6,892.3h1576.6v0.8H5.6V892.3z"/></g></g><radialGradient id="SVGID_13_" cx="896.4689" cy="-34.9307" r="901.4867" gradientUnits="userSpaceOnUse"><stop  offset="0" style="stop-color:#FFFFFF"/><stop  offset="1" style="stop-color:#FFFFFF;stop-opacity:0"/></radialGradient><polygon opacity="0.1" fill-rule="evenodd" clip-rule="evenodd" fill="url(#SVGID_13_)" points="686,55.4 1169.7,811.9 1398.6,811.9 1398.6,55.4 "/></g></svg>